<svg xmlns="http://www.w3.org/2000/svg" viewBox="0 0 151.62 75.11"><defs><style>.cls-1{isolation:isolate;}.cls-2{fill:#fff;}.cls-3{fill:#ea1d25;fill-rule:evenodd;}</style></defs><g id="Ebene_2" data-name="Ebene 2"><g id="Ebene_1-2" data-name="Ebene 1"><g class="cls-1"><path class="cls-2" d="M8.51,70.79A2.46,2.46,0,0,1,9,72.33a2.3,2.3,0,0,1-1,2A5.14,5.14,0,0,1,5.07,75H0V65.2H4.79a4.67,4.67,0,0,1,2.75.69,2.15,2.15,0,0,1,1,1.86A2.38,2.38,0,0,1,8.15,69a2.31,2.31,0,0,1-1,.88A2.63,2.63,0,0,1,8.51,70.79ZM2.25,66.91v2.31H4.51a2.23,2.23,0,0,0,1.27-.3,1.07,1.07,0,0,0,0-1.73,2.32,2.32,0,0,0-1.27-.28Zm4,6.09a1,1,0,0,0,.46-.91c0-.81-.61-1.22-1.81-1.22H2.25v2.42H4.9A2.55,2.55,0,0,0,6.25,73Z"/><path class="cls-2" d="M18.14,67.47V75H16.07v-.9a2.82,2.82,0,0,1-1,.75,3.37,3.37,0,0,1-1.31.26,3.2,3.2,0,0,1-2.35-.85,3.42,3.42,0,0,1-.87-2.54V67.47H12.7V71.4c0,1.21.51,1.82,1.52,1.82a1.62,1.62,0,0,0,1.26-.51A2.15,2.15,0,0,0,16,71.19V67.47Z"/><path class="cls-2" d="M26.54,67.84a3.46,3.46,0,0,1,1.35,1.36,4.47,4.47,0,0,1,0,4.07,3.53,3.53,0,0,1-1.35,1.36,3.87,3.87,0,0,1-1.91.48,2.91,2.91,0,0,1-2.37-1V75H20.17V64.61h2.19v3.65a2.92,2.92,0,0,1,2.27-.9A3.87,3.87,0,0,1,26.54,67.84Zm-.91,4.91a2.41,2.41,0,0,0,0-3,2,2,0,0,0-2.76,0,2.41,2.41,0,0,0,0,3,2,2,0,0,0,2.76,0Z"/><path class="cls-2" d="M37.17,71.85h-5.7A1.8,1.8,0,0,0,32.2,73a2.41,2.41,0,0,0,1.43.4,3,3,0,0,0,1-.17,2.51,2.51,0,0,0,.85-.56l1.16,1.26a3.89,3.89,0,0,1-3.11,1.22,4.78,4.78,0,0,1-2.25-.5,3.59,3.59,0,0,1-1.51-1.37,3.78,3.78,0,0,1-.54-2,3.85,3.85,0,0,1,.53-2,3.7,3.7,0,0,1,1.44-1.39,4.25,4.25,0,0,1,2.05-.49,4.13,4.13,0,0,1,2,.47A3.44,3.44,0,0,1,36.7,69.2a4.06,4.06,0,0,1,.51,2.06S37.2,71.49,37.17,71.85Zm-5.11-2.42a1.79,1.79,0,0,0-.62,1.15h3.71a1.83,1.83,0,0,0-.61-1.15,2,2,0,0,0-2.48,0Z"/><path class="cls-2" d="M45.51,68.2a3.34,3.34,0,0,1,.86,2.49V75H44.18V71a2,2,0,0,0-.39-1.33,1.41,1.41,0,0,0-1.13-.44,1.76,1.76,0,0,0-1.32.51,2.09,2.09,0,0,0-.49,1.52V75H38.67V67.47h2.08v.88a3,3,0,0,1,1.08-.74,3.82,3.82,0,0,1,1.42-.25A3.11,3.11,0,0,1,45.51,68.2Z"/><path class="cls-2" d="M59.89,67.47V75H57.82v-.9a2.86,2.86,0,0,1-1,.75,3.28,3.28,0,0,1-1.3.26,3.2,3.2,0,0,1-2.35-.85,3.42,3.42,0,0,1-.87-2.54V67.47h2.19V71.4c0,1.21.5,1.82,1.52,1.82a1.65,1.65,0,0,0,1.26-.51,2.15,2.15,0,0,0,.48-1.52V67.47Z"/><path class="cls-2" d="M68.76,68.2a3.34,3.34,0,0,1,.86,2.49V75H67.44V71a1.91,1.91,0,0,0-.4-1.33,1.4,1.4,0,0,0-1.13-.44,1.72,1.72,0,0,0-1.31.51,2.09,2.09,0,0,0-.5,1.52V75H61.92V67.47H64v.88a3,3,0,0,1,1.07-.74,3.85,3.85,0,0,1,1.42-.25A3.1,3.1,0,0,1,68.76,68.2Z"/><path class="cls-2" d="M79.35,64.61V75H77.27v-.87a2.91,2.91,0,0,1-2.36,1A4,4,0,0,1,73,74.64a3.34,3.34,0,0,1-1.35-1.36,4.51,4.51,0,0,1,0-4.09A3.34,3.34,0,0,1,73,67.83a3.85,3.85,0,0,1,1.92-.47,2.89,2.89,0,0,1,2.26.9V64.61Zm-2.69,8.14a2.38,2.38,0,0,0,0-3,2,2,0,0,0-2.75,0,2.38,2.38,0,0,0,0,3,1.94,1.94,0,0,0,2.75,0Z"/><path class="cls-2" d="M94.4,75V69.12L91.5,74h-1l-2.87-4.71V75H85.48V65.2h1.88L91,71.29l3.61-6.09H96.5l0,9.8Z"/><path class="cls-2" d="M104.42,68.19a3.16,3.16,0,0,1,.94,2.51V75h-2v-.94a2.44,2.44,0,0,1-2.3,1,3.62,3.62,0,0,1-1.5-.29,2.33,2.33,0,0,1-1-.81,2.16,2.16,0,0,1-.33-1.18A2,2,0,0,1,99,71.18a4,4,0,0,1,2.44-.6h1.74a1.38,1.38,0,0,0-.44-1.1,1.87,1.87,0,0,0-1.3-.39,3.69,3.69,0,0,0-1.18.19,3.3,3.3,0,0,0-1,.51l-.78-1.53a4.93,4.93,0,0,1,1.48-.67,6.51,6.51,0,0,1,1.77-.23A3.88,3.88,0,0,1,104.42,68.19Zm-4.57-2a1,1,0,0,1,0-1.39,1,1,0,0,1,.7-.27,1,1,0,1,1,0,1.93A1,1,0,0,1,99.85,66.16Zm2.71,7.22a1.39,1.39,0,0,0,.62-.76v-.77h-1.5c-.9,0-1.34.29-1.34.88a.8.8,0,0,0,.33.67,1.48,1.48,0,0,0,.9.24A1.92,1.92,0,0,0,102.56,73.38Zm.12-7.22a1,1,0,0,1,.69-1.66,1,1,0,0,1,.7.27,1,1,0,0,1,0,1.39,1,1,0,0,1-.7.27A.93.93,0,0,1,102.68,66.16Z"/><path class="cls-2" d="M115.09,64.61V75H113v-.87a2.9,2.9,0,0,1-2.36,1,4,4,0,0,1-1.92-.47,3.46,3.46,0,0,1-1.35-1.36,4.51,4.51,0,0,1,0-4.09,3.46,3.46,0,0,1,1.35-1.36,3.87,3.87,0,0,1,1.92-.47,2.88,2.88,0,0,1,2.26.9V64.61Zm-2.69,8.14a2.38,2.38,0,0,0,0-3,2,2,0,0,0-2.75,0,2.38,2.38,0,0,0,0,3,1.94,1.94,0,0,0,2.75,0Z"/><path class="cls-2" d="M118.58,74.61a3.87,3.87,0,0,1-1.49-5.38,3.74,3.74,0,0,1,1.49-1.38,4.68,4.68,0,0,1,2.17-.49,4.24,4.24,0,0,1,2.08.49,3,3,0,0,1,1.29,1.42l-1.69.91a1.85,1.85,0,0,0-1.7-1,1.88,1.88,0,0,0-1.41.56,2.36,2.36,0,0,0,0,3.05,1.91,1.91,0,0,0,1.41.56,1.84,1.84,0,0,0,1.7-1l1.69.93a3.06,3.06,0,0,1-1.29,1.4,4.24,4.24,0,0,1-2.08.5A4.57,4.57,0,0,1,118.58,74.61Z"/><path class="cls-2" d="M132.17,68.2a3.34,3.34,0,0,1,.86,2.49V75h-2.19V71a2,2,0,0,0-.39-1.33,1.41,1.41,0,0,0-1.13-.44,1.76,1.76,0,0,0-1.32.51,2.09,2.09,0,0,0-.49,1.52V75h-2.18V64.61h2.18v3.64a2.84,2.84,0,0,1,1-.66,3.66,3.66,0,0,1,1.34-.23A3.12,3.12,0,0,1,132.17,68.2Z"/><path class="cls-2" d="M142.42,71.85h-5.7a1.8,1.8,0,0,0,.73,1.11,2.41,2.41,0,0,0,1.43.4,3,3,0,0,0,1-.17,2.51,2.51,0,0,0,.85-.56l1.16,1.26a3.89,3.89,0,0,1-3.11,1.22,4.78,4.78,0,0,1-2.25-.5,3.59,3.59,0,0,1-1.51-1.37,3.78,3.78,0,0,1-.54-2,3.85,3.85,0,0,1,.53-2,3.7,3.7,0,0,1,1.44-1.39,4.25,4.25,0,0,1,2-.49,4.13,4.13,0,0,1,2,.47A3.44,3.44,0,0,1,142,69.2a4.06,4.06,0,0,1,.51,2.06S142.45,71.49,142.42,71.85Zm-5.11-2.42a1.79,1.79,0,0,0-.62,1.15h3.71a1.83,1.83,0,0,0-.61-1.15,2,2,0,0,0-2.48,0Z"/><path class="cls-2" d="M150.76,68.2a3.34,3.34,0,0,1,.86,2.49V75h-2.19V71a2,2,0,0,0-.39-1.33,1.41,1.41,0,0,0-1.13-.44,1.76,1.76,0,0,0-1.32.51,2.13,2.13,0,0,0-.49,1.52V75h-2.18V67.47H146v.88a3,3,0,0,1,1.08-.74,3.82,3.82,0,0,1,1.42-.25A3.11,3.11,0,0,1,150.76,68.2Z"/></g><g id="Gruppe_535-2" data-name="Gruppe 535-2"><g id="Page-1"><path id="Oval" class="cls-3" d="M75.81,50.84A25.42,25.42,0,1,0,50.39,25.42h0A25.42,25.42,0,0,0,75.81,50.84Z"/></g><path id="Ausschluss_4" data-name="Ausschluss 4" class="cls-2" d="M65.26,40.36h0l2-11.58-8.58-8.2L70.55,18.9l5.3-10.7,5.3,10.7L93,20.58l-8.58,8.2,2,11.58-10.6-5.47-10.6,5.47ZM70.1,24v2.83h4.31v4.23h2.88V26.82h4.32V24H77.29V19.75H74.41V24Z"/></g></g></g></svg>