<svg xmlns="http://www.w3.org/2000/svg" xmlns:xlink="http://www.w3.org/1999/xlink" viewBox="0 0 228.07 45.94"><defs><style>.cls-1{fill:url(#Unbenannter_Verlauf_9);}.cls-2{fill:red;}.cls-3{fill:#ebeeec;}.cls-4{fill:url(#Unbenannter_Verlauf_2);}.cls-5{fill:url(#Unbenannter_Verlauf_3);}.cls-6{fill:url(#Unbenannter_Verlauf_4);}.cls-7{fill:url(#Unbenannter_Verlauf_5);}.cls-8{fill:url(#Unbenannter_Verlauf_6);}.cls-9{fill:url(#Unbenannter_Verlauf_7);}.cls-10{fill:#c3cecb;}.cls-11{fill:url(#Unbenannter_Verlauf_8);}</style><linearGradient id="Unbenannter_Verlauf_9" x1="-204.49" y1="536.17" x2="-204.49" y2="535.63" gradientTransform="matrix(64.55, 0, 0, -33.55, 13236.01, 17961.81)" gradientUnits="userSpaceOnUse"><stop offset="0" stop-color="#eaeeed"/><stop offset="1" stop-color="#61696c"/></linearGradient><linearGradient id="Unbenannter_Verlauf_2" x1="-204.98" y1="529.54" x2="-204.98" y2="528.56" gradientTransform="matrix(42.17, 0, 0, -14.48, 8680.14, 7673.01)" gradientUnits="userSpaceOnUse"><stop offset="0" stop-color="#60686b"/><stop offset="1" stop-color="#c5d1cd"/></linearGradient><linearGradient id="Unbenannter_Verlauf_3" x1="-209.59" y1="524.21" x2="-208.86" y2="523.24" gradientTransform="matrix(10.82, 0, 0, -9.46, 2298.7, 4968.53)" gradientUnits="userSpaceOnUse"><stop offset="0" stop-color="#707978"/><stop offset="1" stop-color="#d9dedc"/></linearGradient><linearGradient id="Unbenannter_Verlauf_4" x1="-209.18" y1="530.61" x2="-208.28" y2="529.65" gradientTransform="matrix(11.45, 0, 0, -16.09, 2426.72, 8558.93)" gradientUnits="userSpaceOnUse"><stop offset="0" stop-color="#67706f"/><stop offset="1" stop-color="#d6dedc"/></linearGradient><linearGradient id="Unbenannter_Verlauf_5" x1="-206.97" y1="529.17" x2="-206.97" y2="528.17" gradientTransform="matrix(17.67, 0, 0, -13.93, 3694.25, 7375.3)" gradientUnits="userSpaceOnUse"><stop offset="0" stop-color="#cad3d0"/><stop offset="1" stop-color="#95a09c"/></linearGradient><linearGradient id="Unbenannter_Verlauf_6" x1="-206.77" y1="533.04" x2="-206.77" y2="532.06" gradientTransform="matrix(18.75, 0, 0, -22.52, 3912.86, 12025.68)" gradientUnits="userSpaceOnUse"><stop offset="0" stop-color="#b9bebe"/><stop offset="1" stop-color="#586160"/></linearGradient><linearGradient id="Unbenannter_Verlauf_7" x1="-204.39" y1="536.19" x2="-204.39" y2="535.2" gradientTransform="matrix(72.28, 0, 0, -44.8, 14810.69, 24025.02)" gradientUnits="userSpaceOnUse"><stop offset="0" stop-color="#eaeeed"/><stop offset="0.5" stop-color="#d2ddd7"/><stop offset="1" stop-color="#5b6463"/></linearGradient><linearGradient id="Unbenannter_Verlauf_8" x1="-205.28" y1="526.17" x2="-204.28" y2="526.17" gradientTransform="matrix(49.11, 0, 0, -11.19, 10094.06, 5906.37)" gradientUnits="userSpaceOnUse"><stop offset="0" stop-color="#687170"/><stop offset="1" stop-color="#687170" stop-opacity="0"/></linearGradient></defs><g id="Ebene_2" data-name="Ebene 2"><g id="Ebene_1-2" data-name="Ebene 1"><path id="path2843" d="M36.71,0C16.47,0,0,10.3,0,23s16.47,23,36.71,23,36.7-10.31,36.7-23S57,0,36.71,0Zm0,1.13c19.62,0,35.58,9.8,35.58,21.84s-16,21.84-35.58,21.84S1.13,35,1.13,23,17.09,1.13,36.71,1.13ZM35,4.06l-1.77.12C24.65,4.7,18.41,7,17.34,10a3,3,0,0,0-.17.94,3,3,0,0,0,.43,1.5c1.2,2,4.9,3.7,10.16,4.6l.56.09.1-.55c.86-5.28,2.76-9.42,5.21-11.38Zm3.4,0,1.38,1.12c2.44,2,4.34,6.1,5.21,11.38l.09.55.56-.09c5.26-.9,9-2.57,10.15-4.6A2.8,2.8,0,0,0,56.07,10C55,7,48.77,4.7,40.17,4.18ZM31.78,5.42c-2,2.27-3.56,5.93-4.36,10.38-4.58-.84-7.87-2.3-8.84-4a1.68,1.68,0,0,1-.18-1.5c.82-2.28,6.34-4.28,13.38-4.93Zm9.86,0c7,.64,12.56,2.65,13.37,4.93a1.63,1.63,0,0,1,.1.57,1.9,1.9,0,0,1-.27.93c-1,1.65-4.27,3.11-8.84,4-.81-4.44-2.35-8.11-4.36-10.38ZM36.71,9.29c-2.31,0-4.19,2.84-5,7.6l-.11.61.62.05c1.48.11,3,.17,4.53.17s3-.06,4.53-.17l.62-.05-.12-.61c-.84-4.75-2.73-7.6-5-7.6Zm0,1.13c1.58,0,3,2.36,3.8,6-1.25.08-2.52.13-3.8.13s-2.56-.05-3.8-.13c.77-3.68,2.23-6,3.8-6ZM12.62,11.59l-.71.6C8.05,15.42,6,19.26,6,23.3,6,32.8,17.59,40.82,33,42l1.71.13L33.35,41C30,38.11,27.9,31.28,27.9,23.16l0-1.91-.47-.1C19.39,19.7,13.64,16.3,12.82,12.5Zm48.17,0-.2.91C59.77,16.3,54,19.7,46,21.15l-.47.09,0,1.92c0,8.11-2.1,14.94-5.46,17.82l-1.3,1.12L40.47,42C55.83,40.82,67.41,32.8,67.41,23.3c0-4-2-7.88-5.9-11.11Zm-48.8,2c1.48,3.85,7,7,14.8,8.53,0,.44,0,1,0,1,0,7.52,1.78,14,4.73,17.53-14-1.5-24.37-8.8-24.37-17.39,0-3.46,1.69-6.78,4.86-9.66Zm49.43,0c3.17,2.89,4.86,6.2,4.86,9.67,0,8.59-10.38,15.9-24.37,17.39,2.94-3.51,4.73-10,4.73-17.53,0,0,0-.55,0-1,7.81-1.49,13.32-4.69,14.8-8.53Zm-30.2,8v.82c0,7.54,2.36,13.23,5.5,13.23s5.5-5.69,5.5-13.23v-.82l-.61,0c-1.6.14-3.24.21-4.89.21s-3.3-.07-4.88-.21Zm1.12,1.22c1.43.1,2.9.17,4.37.17s2.93-.07,4.37-.17c-.09,7-2.3,11.71-4.37,11.71s-4.29-4.69-4.37-11.71Z"/><path id="path2875" class="cls-1" d="M61,9.61c0,.14.1.28.14.43A4.28,4.28,0,0,1,61,12.52c3.66,3,5.82,6.75,5.82,10.78,0,10.08-13.49,18.25-30.13,18.25S6.57,33.38,6.57,23.3c0-4,2.16-7.76,5.82-10.78a4.36,4.36,0,0,1-.1-2.48,2.32,2.32,0,0,1,.18-.46c-5,3.56-8,8.22-8,13.34,0,11.16,14.45,20.2,32.27,20.2S69,34.08,69,22.92c0-5.1-3-9.76-8-13.31"/><g id="g2597"><path id="path2831" class="cls-2" d="M157.34,22.73a12.5,12.5,0,0,1,12.48-12.55h.08a12.55,12.55,0,1,1-12.56,12.55Zm12.56,7.93a7.63,7.63,0,0,0,6.94-7.93c0-4.42-3.17-8-6.94-7.94a7.31,7.31,0,0,0-7,7.64c0,.1,0,.2,0,.3a7.4,7.4,0,0,0,6.85,7.92h.09"/><path id="path2833" class="cls-2" d="M196.67,15.45V34.63h-5.29V15.45h-7.6V11.16h20.15v4.29h-7.27"/><path id="path2835" class="cls-2" d="M210.21,29.33h0l-2,5.31H202l9.91-23.47h6.61l9.59,23.47h-6.28l-2-5.31Zm5-4h3.3l-3.3-8.59-3.3,8.59h3.3"/><path id="path2837" class="cls-2" d="M99.5,15.45V34.63H94.22V15.45H87V11.16h19.83v4.29H99.5"/><path id="path2839" class="cls-2" d="M108.1,22.73a12.55,12.55,0,1,1,12.55,12.55A12.55,12.55,0,0,1,108.1,22.73Zm12.55,7.93a7.56,7.56,0,0,0,6.94-7.93,7.46,7.46,0,0,0-6.94-7.94,7.35,7.35,0,0,0-6.94,7.73,1.48,1.48,0,0,0,0,.21,7.44,7.44,0,0,0,6.92,7.93h0"/><path id="path2841" class="cls-2" d="M145.11,34.63h2.64V25.7L157,11.16h-5.95l-5.95,9.91-5.62-9.91h-6.27l9.25,14.54v8.93h2.64"/></g><path id="path2885" class="cls-3" d="M41.19,17c-1.42.11-2.92.17-4.48.17s-3.06-.06-4.49-.17h0l-.93.68c1.72.15,3.53.23,5.42.23s3.7-.08,5.42-.23ZM57.68,9.91c-1.13-3.74-10.47-6.49-21-6.49s-19.83,2.75-21,6.49c-1,3.25,4.39,6.26,12.86,7.45l-.74-.9c-6.85-1.17-10.92-3.65-10-6.3C19,7,27.28,4.63,36.71,4.63S54.41,7,55.54,10.16c.94,2.64-3.13,5.13-10,6.3l-.74.9c8.47-1.19,13.84-4.2,12.86-7.45"/><path id="path2895" class="cls-4" d="M41.19,17c-1.42.11-2.92.17-4.48.17s-3.06-.06-4.49-.17h0l-.93.68c1.72.15,3.53.23,5.42.23s3.7-.08,5.42-.23ZM57.68,9.91c-1.13-3.74-10.47-6.49-21-6.49s-19.83,2.75-21,6.49c-1,3.25,4.39,6.26,12.86,7.45l-.74-.9c-6.85-1.17-10.92-3.65-10-6.3C19,7,27.28,4.63,36.71,4.63S54.41,7,55.54,10.16c.94,2.64-3.13,5.13-10,6.3l-.74.9c8.47-1.19,13.84-4.2,12.86-7.45"/><path id="path2905" class="cls-3" d="M32.24,17c.78-4.37,2.49-7.1,4.47-7.1s3.68,2.73,4.47,7.1h0l.92.67c-.78-5.77-2.9-9.46-5.41-9.46s-4.63,3.69-5.41,9.46l.92-.67h0"/><path id="path2915" class="cls-5" d="M32.24,17c.78-4.37,2.49-7.1,4.47-7.1s3.68,2.73,4.47,7.1h0l.92.67c-.78-5.77-2.9-9.46-5.41-9.46s-4.63,3.69-5.41,9.46l.92-.67h0"/><path id="path2925" class="cls-3" d="M42.4,20.93l-.76,1.36v.3c0,7.25-2.21,12.74-4.94,12.74s-4.94-5.49-4.94-12.74v-.33L31,20.93c0,.54,0,1.09,0,1.66C31,30.8,33.54,37,36.7,37s5.72-6.22,5.72-14.43c0-.57,0-1.12,0-1.66"/><path id="path2935" class="cls-6" d="M42.4,20.93l-.76,1.36v.3c0,7.25-2.21,12.74-4.94,12.74s-4.94-5.49-4.94-12.74v-.33L31,20.93c0,.54,0,1.09,0,1.66C31,30.8,33.54,37,36.7,37s5.72-6.22,5.72-14.43c0-.57,0-1.12,0-1.66"/><path id="path2945" class="cls-7" d="M36.33,3.43c-3.91.32-7.21,5.48-8.46,13.05l.72.89h0c1.05-7.78,4.1-13.58,7.74-13.93Zm.73,0c3.65.36,6.7,6.16,7.75,13.93h0l.72-.88C44.29,8.89,41,3.73,37.06,3.43Z"/><path id="path2985" class="cls-8" d="M28.29,20.6l-.92,1.1c0,.52,0,1,0,1.57,0,11.43,4,19.6,9.13,19.85-4.57-.3-8.24-9.08-8.24-19.85,0-.9,0-1.79.08-2.67Zm16.83,0c.05.88.08,1.76.08,2.67C45.2,34,41.53,42.82,37,43.12c5.14-.26,9.13-8.42,9.13-19.85,0-.53,0-1.05,0-1.57l-.92-1.1Z"/><path id="path3029" class="cls-9" d="M36.71.57C16.75.57.57,10.6.57,23s16.18,22.4,36.14,22.4,36.14-10,36.14-22.4S56.67.57,36.71.57Zm0,2.85c10.5,0,19.83,2.75,21,6.5,1,3.25-4.39,6.25-12.86,7.45-1.08-8-4.31-13.95-8.11-13.95Zm0,0c-3.8,0-7,5.92-8.11,13.94-8.47-1.19-13.84-4.2-12.86-7.45,1.13-3.74,10.47-6.49,21-6.49Zm0,4.78c2.5,0,4.63,3.69,5.41,9.46-1.71.16-3.52.24-5.41.24s-3.7-.08-5.41-.24c.78-5.77,2.9-9.46,5.41-9.46ZM12.45,9.58a2.51,2.51,0,0,0-.16.46c-1.19,4.69,5.55,9,16,10.55-.05.88-.08,1.77-.08,2.68,0,11,3.8,19.85,8.49,19.85s8.49-8.89,8.49-19.85c0-.91,0-1.8-.07-2.68,10.45-1.53,17.19-5.86,16-10.55A3.06,3.06,0,0,0,61,9.61c5,3.55,8,8.21,8,13.3,0,11.17-14.46,20.21-32.28,20.21s-32.27-9-32.27-20.21c0-5.11,3-9.77,8-13.33ZM31,20.93c1.81.17,3.71.26,5.69.26s3.88-.09,5.69-.26c0,.54,0,1.1,0,1.66C42.43,30.8,39.87,37,36.71,37S31,30.8,31,22.59c0-.57,0-1.12,0-1.66Z"/><path id="path3089" class="cls-10" d="M31,20.92h0l.78,1.36c1.58.14,3.22.22,4.92.22s3.35-.08,4.94-.22l.75-1.36h0c-1.81.17-3.72.26-5.7.26S32.82,21.09,31,20.92ZM61.26,11.3c-.2,4.19-6.63,7.89-16.14,9.29h0l.93,1.11C55.36,20,61.48,15.93,61.26,11.31Zm-49.1,0c-.22,4.63,5.9,8.73,15.2,10.4l.93-1.1h0c-9.51-1.4-15.94-5.1-16.14-9.29"/><path id="path3099" class="cls-11" d="M31,20.92h0l.78,1.36c1.58.14,3.22.22,4.92.22s3.35-.08,4.94-.22l.75-1.36h0c-1.81.17-3.72.26-5.7.26S32.82,21.09,31,20.92ZM61.26,11.3c-.2,4.19-6.63,7.89-16.14,9.29h0l.93,1.11C55.36,20,61.48,15.93,61.26,11.31Zm-49.1,0c-.22,4.63,5.9,8.73,15.2,10.4l.93-1.1h0c-9.51-1.4-15.94-5.1-16.14-9.29"/></g></g></svg>