<svg xmlns="http://www.w3.org/2000/svg" xmlns:xlink="http://www.w3.org/1999/xlink" viewBox="0 0 79.82 65.26"><defs><style>.cls-1{fill:red;}.cls-2{fill:url(#Unbenannter_Verlauf_7);}</style><linearGradient id="Unbenannter_Verlauf_7" x1="-741.41" y1="535.62" x2="-741.41" y2="534.63" gradientTransform="matrix(72.28, 0, 0, -44.8, 53631.52, 23999.09)" gradientUnits="userSpaceOnUse"><stop offset="0" stop-color="#eaeeed"/><stop offset="0.5" stop-color="#d2ddd7"/><stop offset="1" stop-color="#5b6463"/></linearGradient></defs><g id="Ebene_2" data-name="Ebene 2"><g id="Ebene_1-2" data-name="Ebene 1"><g id="g2597"><path id="path2831" class="cls-1" d="M39.82,58.16a7.08,7.08,0,0,1,7.06-7.1h0a7.1,7.1,0,1,1-7.1,7.1Zm7.1,4.49a4.32,4.32,0,0,0,3.93-4.49c0-2.5-1.79-4.5-3.93-4.49A4.13,4.13,0,0,0,43,58a.91.91,0,0,0,0,.17,4.19,4.19,0,0,0,3.87,4.49h.05"/><path id="path2833" class="cls-1" d="M62.06,54.05V64.89h-3V54.05h-4.3V51.62h11.4v2.43H62.06"/><path id="path2835" class="cls-1" d="M69.73,61.9h0l-1.12,3H65.06l5.6-13.28H74.4L79.82,64.9H76.27l-1.12-3Zm2.81-2.24H74.4L72.54,54.8l-1.87,4.86h1.87"/><path id="path2837" class="cls-1" d="M7.1,54.05V64.89h-3V54.05H0V51.62H11.22v2.43H7.1"/><path id="path2839" class="cls-1" d="M12,58.16a7.1,7.1,0,1,1,7.1,7.1,7.1,7.1,0,0,1-7.1-7.1Zm7.1,4.49A4.28,4.28,0,0,0,23,58.16a4.23,4.23,0,0,0-3.93-4.49A4.14,4.14,0,0,0,15.14,58v.12a4.22,4.22,0,0,0,3.92,4.49h0"/><path id="path2841" class="cls-1" d="M32.9,64.89h1.5v-5l5.23-8.22H36.27L32.9,57.23l-3.18-5.61H26.17l5.24,8.22v5H32.9"/></g><path id="path3029" class="cls-2" d="M39.11,0C19.15,0,3,10,3,22.4S19.15,44.8,39.11,44.8s36.14-10,36.14-22.4S59.07,0,39.11,0Zm0,2.85c10.5,0,19.84,2.75,21,6.5,1,3.25-4.39,6.26-12.86,7.45-1.08-8-4.3-13.95-8.11-13.95Zm0,0c-3.8,0-7,5.92-8.1,14-8.47-1.2-13.85-4.2-12.86-7.45,1.13-3.75,10.47-6.5,21-6.5Zm0,4.78c2.51,0,4.64,3.69,5.41,9.47-1.71.15-3.52.24-5.41.24s-3.7-.09-5.4-.24c.77-5.78,2.9-9.47,5.4-9.47ZM14.86,9a2.45,2.45,0,0,0-.17.45c-1.18,4.69,5.55,9,16,10.56-.06.87-.08,1.77-.08,2.67,0,11,3.8,19.86,8.49,19.86s8.49-8.89,8.49-19.86c0-.9,0-1.8-.08-2.67,10.46-1.54,17.19-5.87,16-10.56,0-.14-.08-.28-.13-.43,5,3.56,8,8.21,8,13.31,0,11.16-14.45,20.21-32.27,20.21S6.84,33.51,6.84,22.35c0-5.11,3-9.78,8-13.34ZM33.43,20.36c1.81.17,3.71.26,5.68.26s3.88-.09,5.69-.26c0,.54,0,1.1,0,1.67,0,8.21-2.56,14.43-5.72,14.43S33.4,30.24,33.4,22c0-.57,0-1.13,0-1.67Z"/></g></g></svg>