<svg xmlns="http://www.w3.org/2000/svg" viewBox="0 0 74.08 57.47"><defs><style>.cls-1{fill:#4d74fe;}</style></defs><g id="Ebene_2" data-name="Ebene 2"><g id="Ebene_1-2" data-name="Ebene 1"><path id="path3793" class="cls-1" d="M0,15.52V45.21A12.26,12.26,0,0,0,12.26,57.47H27.84V45.2h-14a1.56,1.56,0,0,1-1.57-1.56h0V15.52Z"/><path id="path3829" class="cls-1" d="M15.26,0V42.67H30.83a12.59,12.59,0,0,0,10.86-6.45,12.61,12.61,0,0,0,10.87,6.45H60a1.27,1.27,0,0,1,.14,2.54H30.83V57.47H61.36c7,0,12.72-6,12.72-13.42S68.39,30.63,61.36,30.63H53.89a1.27,1.27,0,1,1-.14-2.54H72.9V15.82H52.56a12.62,12.62,0,0,0-10.87,6.45c-.18-.32-.37-.63-.58-.93a13.9,13.9,0,0,0,2.44-7.92C43.56,6,37.86,0,30.83,0ZM27.84,11h2.38a1.9,1.9,0,1,1,.12,3.79h-2.5Zm0,15.82h2.38a1.9,1.9,0,1,1,.12,3.79h-2.5Z"/></g></g></svg>